<svg width="25" height="25" viewBox="0 0 25 25" fill="none" xmlns="http://www.w3.org/2000/svg">
<path fill-rule="evenodd" clip-rule="evenodd" d="M12.4998 22.0727L13.2511 21.2253C14.1033 20.2501 14.8703 19.3225 15.5521 18.4423L16.1156 17.6995C18.467 14.531 19.6426 12.0176 19.6426 10.1592C19.6426 6.19236 16.4447 2.97656 12.4998 2.97656C8.5549 2.97656 5.35693 6.19236 5.35693 10.1592C5.35693 12.0176 6.53263 14.531 8.88401 17.6995L9.44751 18.4423C10.3241 19.5739 11.3415 20.7841 12.4998 22.0727Z" stroke="#5A58B1" stroke-width="1.5" stroke-linecap="round" stroke-linejoin="round"/>
<path d="M12.4996 13.0959C14.1433 13.0959 15.4758 11.7634 15.4758 10.1197C15.4758 8.47604 14.1433 7.14355 12.4996 7.14355C10.8559 7.14355 9.52344 8.47604 9.52344 10.1197C9.52344 11.7634 10.8559 13.0959 12.4996 13.0959Z" stroke="#5A58B1" stroke-width="1.5" stroke-linecap="round" stroke-linejoin="round"/>
</svg>
