<svg width="25" height="25" viewBox="0 0 25 25" fill="none" xmlns="http://www.w3.org/2000/svg">
<path d="M14.5468 19.2753C14.8938 19.2753 15.1746 18.9946 15.1746 18.6475C15.1746 18.3004 14.8938 18.0197 14.5468 18.0197H2.54185C1.83238 18.0197 1.25051 17.4429 1.25051 16.7283V5.22365C1.25051 5.10626 1.27603 4.99397 1.30666 4.88678L10.1929 12.6042C10.3103 12.7063 10.4584 12.7573 10.6013 12.7573C10.7493 12.7573 10.8922 12.7063 11.0096 12.6042L19.9775 4.82043C20.0286 4.94803 20.0592 5.08074 20.0592 5.22365V9.69997C20.0592 10.047 20.3399 10.3278 20.687 10.3278C21.0341 10.3278 21.3148 10.047 21.3148 9.69997V5.22365C21.3148 3.93231 20.2634 2.88086 18.972 2.88086H2.34279C1.75582 2.88086 1.21989 3.10034 0.811556 3.45763C0.801347 3.46783 0.791139 3.47804 0.775827 3.48825C0.301143 3.917 0 4.53459 0 5.22365V16.7334C0 18.132 1.13822 19.2753 2.54185 19.2753H14.5468ZM10.6064 11.3027L2.34279 4.13137H18.8648L10.6064 11.3027Z" fill="#5A58B1"/>
<path d="M17.5939 16.0748C16.915 16.0748 16.3638 16.626 16.3638 17.3049V20.888C16.3638 21.5668 16.915 22.1181 17.5939 22.1181H23.7699C24.4487 22.1181 24.9999 21.5668 24.9999 20.888V17.3049C24.9999 16.6362 24.4589 16.0901 23.7903 16.0799V14.7783C23.7903 13.0633 22.3968 11.6699 20.6819 11.6699C19.3905 11.6699 18.2574 12.4457 17.7878 13.6452C17.6602 13.9668 17.8184 14.3292 18.14 14.4568C18.4616 14.5844 18.824 14.4261 18.9516 14.1046C19.2323 13.3849 19.9111 12.9204 20.6819 12.9204C21.7078 12.9204 22.5398 13.7524 22.5398 14.7783V16.0748H17.5939ZM23.7494 20.8624H17.6194V17.3253H23.7494V20.8624Z" fill="#5A58B1"/>
</svg>
