<svg width="25" height="25" viewBox="0 0 25 25" fill="none" xmlns="http://www.w3.org/2000/svg">
<path fill-rule="evenodd" clip-rule="evenodd" d="M16.7419 4.19248C15.7355 3.16889 14.3153 2.60449 12.6581 2.60449C11.0009 2.60449 9.58074 3.16889 8.57443 4.19248C7.56889 5.21528 7.01689 6.65544 7.01689 8.33366C7.01689 10.593 8.00061 12.0493 9.2181 12.9235C9.45472 13.0932 9.69925 13.2406 9.94594 13.3677C8.58534 13.7416 7.48058 14.3933 6.58111 15.2018C5.15885 16.48 4.27734 18.1246 3.68345 19.5972C3.57586 19.864 3.7049 20.1674 3.97169 20.275C4.23846 20.3826 4.54193 20.2536 4.64951 19.9868C5.21479 18.5851 6.02212 17.1047 7.2774 15.9765C8.52008 14.8597 10.229 14.0628 12.6581 14.0628C14.9289 14.0628 16.5683 14.7592 17.7852 15.7586C19.0123 16.7663 19.8386 18.1062 20.4307 19.4307C20.8257 20.3145 20.1325 21.3545 19.0442 21.3545H7.02569C6.73804 21.3545 6.50485 21.5877 6.50485 21.8753C6.50485 22.1629 6.73804 22.3962 7.02569 22.3962H19.0442C20.7652 22.3962 22.133 20.6866 21.3817 19.0057C20.7531 17.5995 19.8439 16.1013 18.4463 14.9536C17.6167 14.2723 16.6251 13.7229 15.4376 13.3865C16.0727 13.0353 16.5948 12.5693 17.0102 12.0411C17.909 10.8982 18.2994 9.47966 18.2994 8.33366C18.2994 6.65544 17.7474 5.21528 16.7419 4.19248ZM15.999 4.92275C16.7856 5.72287 17.2577 6.88688 17.2577 8.33366C17.2577 9.27099 16.9311 10.4566 16.1914 11.3971C15.4659 12.3196 14.3338 13.0212 12.6581 13.0212C11.9804 13.0212 10.8111 12.7848 9.82564 12.0772C8.86697 11.3889 8.05856 10.241 8.05856 8.33366C8.05856 6.88688 8.53063 5.72287 9.31724 4.92275C10.1031 4.12343 11.243 3.64616 12.6581 3.64616C14.0732 3.64616 15.2132 4.12343 15.999 4.92275Z" fill="#5A58B1" stroke="#5A58B1" stroke-width="0.5"/>
</svg>
