<svg width="22" height="22" viewBox="0 0 22 22" fill="none" xmlns="http://www.w3.org/2000/svg">
<path d="M6.88219 9.42764C6.89713 9.42764 6.89713 9.42764 6.88219 9.42764C7.37562 9.42764 7.77932 9.05385 7.77932 8.56043C7.77932 8.56043 7.79426 7.84272 8.15311 7.13995C8.60168 6.24282 9.39416 5.79426 10.5604 5.79426C11.6519 5.79426 12.4593 6.09332 12.9079 6.67645C13.2817 7.15494 13.3864 7.8128 13.207 8.53051C12.9827 9.4127 12.2201 10.1753 11.4875 10.9228C10.5903 11.8499 9.64836 12.7919 9.64836 14.0628C9.64836 14.5562 10.0521 14.9599 10.5455 14.9599C11.0389 14.9599 11.4426 14.5562 11.4426 14.0628C11.4426 13.5245 12.0855 12.8666 12.7734 12.1788C13.6257 11.3116 14.5976 10.3248 14.9414 8.97907C15.2704 7.73802 15.0461 6.49703 14.3284 5.58491C13.7752 4.86721 12.6687 4 10.5754 4C8.22789 4 7.10648 5.25598 6.5682 6.33254C6.02992 7.40909 6 8.44079 6 8.56043C6 9.03886 6.38877 9.42764 6.88219 9.42764Z" fill="#5053B8"/>
<path d="M10.6394 16.9893H10.6304" stroke="#5053B8" stroke-width="1.5" stroke-linecap="round" stroke-linejoin="round"/>
<circle cx="11" cy="11" r="10" stroke="#5053B8" stroke-width="1.5"/>
</svg>
