<svg width="25" height="32" viewBox="0 0 25 32" fill="none" xmlns="http://www.w3.org/2000/svg">
<g filter="url(#filter0_d_1956_983)">
<path d="M7.07208 2.36168L8.55412 1.91496C9.94962 1.49432 11.4406 2.17411 12.0382 3.50347L12.9608 5.55569C13.4702 6.68879 13.2017 8.02045 12.2932 8.86772L10.6816 10.3705C10.6617 10.3891 10.6453 10.4111 10.6334 10.4356C10.4648 10.7802 10.7202 11.7007 11.5233 13.0917C12.4285 14.6595 13.1282 15.2799 13.4513 15.1836L15.5668 14.5369C16.7546 14.1737 18.0417 14.6067 18.7684 15.6139L20.0787 17.4298C20.9293 18.6087 20.7763 20.235 19.7208 21.2346L18.5939 22.3018C17.798 23.0556 16.6834 23.372 15.6101 23.1489C12.4698 22.496 9.65626 19.9672 7.14587 15.619C4.633 11.2666 3.85064 7.56252 4.85992 4.51484C5.20271 3.47972 6.02808 2.67637 7.07208 2.36168ZM7.4586 3.64398C6.8322 3.83279 6.33698 4.31481 6.1313 4.93587C5.26166 7.5619 5.96609 10.897 8.30572 14.9494C10.6431 18.9979 13.1766 21.2751 15.8827 21.8377C16.5267 21.9715 17.1954 21.7817 17.673 21.3294L18.7999 20.2622C19.3682 19.724 19.4506 18.8482 18.9926 18.2135L17.6823 16.3976C17.291 15.8553 16.598 15.6221 15.9584 15.8176L13.8384 16.4658C12.665 16.8155 11.5622 15.8376 10.3635 13.7613C9.34869 12.0036 8.9964 10.734 9.43034 9.84707C9.51419 9.67566 9.62874 9.52107 9.76826 9.39098L11.3798 7.88823C11.869 7.432 12.0135 6.71496 11.7393 6.10483L10.8167 4.05261C10.4949 3.3368 9.69206 2.97076 8.94064 3.19725L7.4586 3.64398Z" fill="#5A58B1"/>
</g>
<defs>
<filter id="filter0_d_1956_983" x="-4" y="0" width="33" height="33" filterUnits="userSpaceOnUse" color-interpolation-filters="sRGB">
<feFlood flood-opacity="0" result="BackgroundImageFix"/>
<feColorMatrix in="SourceAlpha" type="matrix" values="0 0 0 0 0 0 0 0 0 0 0 0 0 0 0 0 0 0 127 0" result="hardAlpha"/>
<feOffset dy="4"/>
<feGaussianBlur stdDeviation="2"/>
<feComposite in2="hardAlpha" operator="out"/>
<feColorMatrix type="matrix" values="0 0 0 0 0 0 0 0 0 0 0 0 0 0 0 0 0 0 0.25 0"/>
<feBlend mode="normal" in2="BackgroundImageFix" result="effect1_dropShadow_1956_983"/>
<feBlend mode="normal" in="SourceGraphic" in2="effect1_dropShadow_1956_983" result="shape"/>
</filter>
</defs>
</svg>
