<svg width="25" height="25" viewBox="0 0 25 25" fill="none" xmlns="http://www.w3.org/2000/svg">
<path fill-rule="evenodd" clip-rule="evenodd" d="M12.3379 22.5641C8.49235 22.5641 5.20825 21.9657 5.20825 19.569C5.20825 17.1725 8.47151 14.96 12.3379 14.96C16.1837 14.96 19.4677 17.151 19.4677 19.5477C19.4677 21.9433 16.2045 22.5641 12.3379 22.5641Z" stroke="#5A58B1" stroke-width="1.5" stroke-linecap="round" stroke-linejoin="round"/>
<path fill-rule="evenodd" clip-rule="evenodd" d="M12.3303 11.6392C14.8541 11.6392 16.8995 9.59375 16.8995 7.07008C16.8995 4.54641 14.8541 2.5 12.3303 2.5C9.80668 2.5 7.76028 4.54641 7.76028 7.07008C7.75176 9.58523 9.78301 11.6307 12.2981 11.6392C12.3095 11.6392 12.3199 11.6392 12.3303 11.6392Z" stroke="#5A58B1" stroke-width="1.5" stroke-linecap="round" stroke-linejoin="round"/>
</svg>
