<svg width="25" height="25" viewBox="0 0 25 25" fill="none" xmlns="http://www.w3.org/2000/svg">
<path fill-rule="evenodd" clip-rule="evenodd" d="M12.5 3.125C10.379 3.125 10.1785 6.81929 8.91574 8.12455C7.65301 9.42982 3.72729 7.93742 3.18186 10.2542C2.63757 12.5722 6.16911 13.3586 6.60454 15.3473C7.04226 17.336 4.8846 20.1301 6.72829 21.5206C8.57199 22.91 10.5566 19.7653 12.5 19.7653C14.4433 19.7653 16.428 22.91 18.2717 21.5206C20.1154 20.1301 17.9589 17.336 18.3954 15.3473C18.832 13.3586 22.3624 12.5722 21.8181 10.2542C21.2739 7.93742 17.347 9.42982 16.0854 8.12455C14.8226 6.81929 14.6209 3.125 12.5 3.125Z" stroke="#5053B8" stroke-width="1.5" stroke-linecap="round" stroke-linejoin="round"/>
</svg>
