<svg width="25" height="25" viewBox="0 0 25 25" fill="none" xmlns="http://www.w3.org/2000/svg">
<path d="M23.6205 11.5619C23.4464 11.4463 23.2259 11.4268 23.0339 11.5085L16.0927 14.4644L14.5573 13.8103C15.7416 12.1394 18.8841 7.48881 18.8841 5.19856C18.8841 2.3317 16.552 0 13.6851 0C10.8183 0 8.48659 2.3317 8.48659 5.19856C8.48659 7.1091 10.6732 10.662 12.0867 12.7587L9.15107 11.5085C9.14486 11.5051 9.13781 11.5051 9.13159 11.5027C9.10548 11.4923 9.07936 11.4865 9.05283 11.4799C9.02962 11.4741 9.00723 11.4678 8.98361 11.4653C8.95791 11.462 8.93303 11.462 8.90692 11.462C8.88122 11.462 8.85593 11.462 8.83065 11.4653C8.80702 11.4678 8.78463 11.4741 8.76183 11.4799C8.73489 11.4865 8.70836 11.4919 8.68266 11.5027C8.67603 11.5051 8.66981 11.5051 8.66359 11.5085L1.47863 14.5689C1.2494 14.6659 1.10059 14.891 1.10059 15.1405V24.3782C1.10059 24.5871 1.20546 24.7815 1.37956 24.8964C1.48278 24.9652 1.60216 25 1.72237 25C1.80486 25 1.88735 24.983 1.96611 24.9498L8.90733 21.9939L15.8486 24.9498C15.8631 24.9565 15.8784 24.9585 15.8929 24.9635C15.9066 24.9685 15.9203 24.9731 15.9352 24.9764C15.987 24.99 16.0392 25 16.0923 25C16.1454 25 16.1976 24.9905 16.2494 24.9764C16.2639 24.9731 16.2776 24.9681 16.2917 24.9635C16.3062 24.9585 16.3215 24.9561 16.336 24.9498L23.521 21.8902C23.7506 21.7924 23.899 21.5673 23.899 21.3178V12.0801C23.899 11.8712 23.7946 11.6768 23.6205 11.5619ZM13.686 1.16647C15.9091 1.16647 17.7176 2.97505 17.7176 5.19856C17.7176 6.71821 15.6724 10.1778 13.686 13.0169C11.6992 10.1774 9.65389 6.71821 9.65389 5.19856C9.65389 2.97505 11.4625 1.16647 13.686 1.16647ZM8.28596 20.9074L2.34458 23.4377V15.5517L8.28596 13.0211V20.9074ZM15.4709 23.4377L9.52954 20.9074V13.0211L15.4709 15.5517V23.4377ZM22.6555 20.9074L16.7141 23.4377V15.5517L22.6555 13.0211V20.9074Z" fill="#5A58B1"/>
<path d="M15.8202 5.64081C15.8202 4.46439 14.8622 3.50684 13.6862 3.50684C12.509 3.50684 11.5522 4.4648 11.5522 5.64081C11.5522 6.81806 12.5094 7.77478 13.6862 7.77478C14.8622 7.77478 15.8202 6.81806 15.8202 5.64081ZM12.4965 5.64081C12.4965 4.98586 13.0296 4.45237 13.6854 4.45237C14.3408 4.45237 14.8738 4.98586 14.8738 5.64081C14.8738 6.29659 14.3408 6.83008 13.6854 6.83008C13.0304 6.83008 12.4965 6.29659 12.4965 5.64081Z" fill="#5A58B1"/>
</svg>
