<svg width="20" height="20" viewBox="0 0 20 20" fill="none" xmlns="http://www.w3.org/2000/svg">
<path d="M10.7888 2.28543V1.5777H11.3583C11.7939 1.5777 12.1471 1.22449 12.1471 0.788867C12.1471 0.353242 11.7939 0 11.3583 0H8.64172C8.20605 0 7.85289 0.353203 7.85289 0.788828C7.85289 1.22445 8.20609 1.57766 8.64172 1.57766H9.21117V2.28539C4.68566 2.68594 1.125 6.49715 1.125 11.125C1.125 16.0187 5.10633 20 10 20C14.8937 20 18.8751 16.0187 18.8751 11.125C18.875 6.49715 15.3143 2.68594 10.7888 2.28543ZM10.7888 18.3795V17.5934C10.7888 17.1578 10.4356 16.8046 10 16.8046C9.56433 16.8046 9.21117 17.1578 9.21117 17.5934V18.3795C5.81625 18.0129 3.11207 15.3087 2.74547 11.9138H3.53156C3.96723 11.9138 4.32039 11.5606 4.32039 11.125C4.32039 10.6894 3.96719 10.3362 3.53156 10.3362H2.74543C3.11203 6.94125 5.81629 4.23707 9.21113 3.87043V4.65652C9.21113 5.09219 9.56433 5.44535 9.99996 5.44535C10.4356 5.44535 10.7888 5.09215 10.7888 4.65652V3.87035C14.1837 4.23695 16.8879 6.94121 17.2545 10.3361H16.4684C16.0327 10.3361 15.6796 10.6893 15.6796 11.1249C15.6796 11.5605 16.0328 11.9137 16.4684 11.9137H17.2546C16.888 15.3087 14.1837 18.013 10.7888 18.3795Z" fill="#383C93"/>
<path d="M12.3925 7.6168L10.1199 9.88945C10.0804 9.88567 10.0404 9.88356 9.99991 9.88356C9.31429 9.88356 8.75854 10.4394 8.75854 11.1249C8.75854 11.8105 9.31433 12.3663 9.99991 12.3663C10.6855 12.3663 11.2413 11.8105 11.2413 11.1249C11.2413 11.0844 11.2392 11.0445 11.2354 11.005L13.508 8.73234C13.816 8.42434 13.816 7.92484 13.508 7.61676C13.2001 7.30871 12.7006 7.30871 12.3925 7.6168Z" fill="#383C93"/>
</svg>
